<svg xmlns="http://www.w3.org/2000/svg"  viewBox="0 0 72 72" width="64px" height="64px"><path d="M 25 11 C 20.029 11 16 15.029 16 20 L 16 52 C 16 56.971 20.029 61 25 61 L 47 61 C 51.971 61 56 56.971 56 52 L 56 31.070312 C 56 28.683313 55.051281 26.395031 53.363281 24.707031 L 42.292969 13.636719 C 40.604969 11.948719 38.316688 11 35.929688 11 L 25 11 z M 26 19 L 31 19 L 31 27 C 31 31.971 35.029 36 40 36 L 48 36 L 48 50.220703 L 42.292969 45.087891 C 41.301969 44.196891 39.798547 44.198797 38.810547 45.091797 L 33.966797 49.46875 L 31.195312 47.097656 C 30.219313 46.262656 28.781594 46.265516 27.808594 47.103516 L 24 50.384766 L 24 21 C 24 19.895 24.895 19 26 19 z M 39 21.65625 L 45.34375 28 L 41 28 C 39.895 28 39 27.105 39 26 L 39 21.65625 z M 30.5 38 C 29.119 38 28 39.119 28 40.5 C 28 41.881 29.119 43 30.5 43 C 31.881 43 33 41.881 33 40.5 C 33 39.119 31.881 38 30.5 38 z"/></svg>