<svg xmlns="http://www.w3.org/2000/svg"  viewBox="0 0 72 72" width="64px" height="64px"><path d="M 40 12 C 33.241 12 26.9765 15.453859 23.3125 21.005859 C 23.0655 20.998859 22.820172 20.998859 22.576172 21.005859 C 16.684172 21.167859 11.847828 25.175172 10.423828 30.701172 C 6.4158281 33.483172 4 38.03 4 43 C 4 51.271 10.729 58 19 58 L 52 58 C 60.822 58 68 50.822 68 42 C 68 36.054 64.695406 30.666109 59.566406 27.912109 C 57.657406 18.815109 49.493 12 40 12 z M 40 20 C 48.112 20 52.524156 27.502656 52.160156 33.597656 C 56.776156 34.562656 60 37.584 60 42 C 60 46.411 56.411 50 52 50 L 19 50 C 15.141 50 12 46.86 12 43 C 12 37.504 16.877125 36.461813 17.828125 35.757812 C 17.545125 32.931813 18.989 29 23 29 C 24.445 29 26.770969 29.801813 27.667969 30.132812 C 28.215969 28.945813 30.863 20 40 20 z M 37 29 C 35.896 29 35 29.895 35 31 L 35 38 L 32.589844 38 C 31.266844 38 30.524844 39.522453 31.339844 40.564453 L 35.75 46.201172 C 36.385 47.013172 37.615 47.013172 38.25 46.201172 L 42.660156 40.564453 C 43.475156 39.522453 42.733156 38 41.410156 38 L 39 38 L 39 31 C 39 29.895 38.104 29 37 29 z"/></svg>